<svg width="500" height="92" viewBox="0 0 500 92" fill="none" xmlns="http://www.w3.org/2000/svg">
<path d="M0 0V23L46.375 68.5H0V91.75H79.25V68.5L32.25 23H79.25V0H0Z" fill="white"/>
<path d="M88.25 0V91.75H115V0H88.25Z" fill="white"/>
<path d="M221 0V91.75H244.25V57.5H288.5V91.75H311.5V0H288.5V34.25H244.25V0H221Z" fill="white"/>
<path d="M320.5 0V23H411.25V0H320.5Z" fill="white"/>
<path fill-rule="evenodd" clip-rule="evenodd" d="M124 91.75V0H212V58.25H146V91.75H124ZM161 37.75L146.5 23.25H189V37.75H161Z" fill="white"/>
<path fill-rule="evenodd" clip-rule="evenodd" d="M420.25 91.75V0H500V22.75L477.25 45.25L500 68.75V91.75H489L443.5 46.25V91.75H420.25ZM443.5 45V22.5H466L443.5 45Z" fill="white"/>
<path d="M320.5 34.25V57.5H411.25V34.25H320.5Z" fill="white"/>
<path d="M320.5 68.5V91.75H411.25V68.5H320.5Z" fill="white"/>
</svg>
