<svg width="2160" height="438" viewBox="0 0 2160 438" fill="none" xmlns="http://www.w3.org/2000/svg">
<path d="M439.308 0V434.326H483.364V0H439.308Z" fill="white"/>
<path d="M1419.87 0V44.062H1742.11V0H1419.87Z" fill="white"/>
<path d="M1418.61 195.815V239.878H1740.85V195.815H1418.61Z" fill="white"/>
<path d="M1418.61 389.688V435.009H1740.85V389.688H1418.61Z" fill="white"/>
<path fill-rule="evenodd" clip-rule="evenodd" d="M570.202 44.1527V0.0906383H740.133C743.647 0.0906383 747.152 0.0678335 750.646 0.0451016C784.136 -0.172789 816.596 -0.383976 845.867 19.5591C914.973 66.6382 915.564 175.481 843.35 220.318C810.984 240.412 773.09 239.416 736.032 238.441C728.109 238.233 720.224 238.026 712.44 238.026V222.634L688.378 222.417L660.991 249.808L634.111 222.397L612.999 222.166V434.417H570.202V195.223H612.999V211.7L634.142 211.47L661.27 184.339L688.419 211.491L712.44 211.707V195.223H761.531C780.274 195.223 798.992 194.869 815.657 185.129C856.718 161.139 868.172 107.223 836.678 70.5909C830.574 63.4852 822.656 57.1538 814.399 52.7076C794.879 42.2005 771.694 42.9975 749.453 43.7621C743.741 43.9584 738.09 44.1527 732.58 44.1527H570.202ZM661.067 234.28L644.093 216.971L661.27 199.791L678.411 216.934L661.067 234.28Z" fill="white"/>
<path d="M985.602 434.326V0H1029.66V434.326H985.602Z" fill="white"/>
<path fill-rule="evenodd" clip-rule="evenodd" d="M1288.96 181.914V0H1331.76V434.326H1288.96V256.819C1288.96 255.977 1289.01 255.021 1289.06 254.006C1289.28 250.003 1289.54 245.067 1286.95 242.471C1284.47 240.002 1279.99 240.207 1276.3 240.375L1276.3 240.375C1275.43 240.415 1274.6 240.453 1273.86 240.453H1111.48V222.401L1098.1 222.401L1070.69 249.812L1043.81 222.401L1029.68 222.401L1029.68 211.475L1043.84 211.474L1070.97 184.343L1098.1 211.474L1111.48 211.474V197.65H1273.86C1274.03 197.65 1274.2 197.65 1274.37 197.65H1274.38C1278.2 197.656 1282.95 197.663 1286.44 195.132C1288.97 191.641 1288.97 186.18 1288.96 182.407C1288.96 182.239 1288.96 182.075 1288.96 181.914ZM1070.77 234.284L1053.79 216.975L1070.97 199.795L1088.11 216.938L1070.77 234.284Z" fill="white"/>
<path fill-rule="evenodd" clip-rule="evenodd" d="M1826.43 46.1122V2.05018H1996.36C2002.01 2.05018 2007.74 1.88126 2013.51 1.71141C2025.9 1.34659 2038.44 0.9775 2050.49 2.26873C2070.84 4.4493 2092.19 13.3429 2108.39 25.6538C2167.11 70.2897 2170.74 163.092 2114.46 211.322C2088.09 233.916 2057.65 239.985 2024.06 239.985C2028.94 249.573 2035.71 258.516 2042.39 267.349C2045.65 271.662 2048.89 275.948 2051.89 280.27C2063.69 297.297 2075.55 314.277 2087.42 331.257L2087.43 331.272L2087.44 331.277C2099.3 348.25 2111.16 365.223 2122.96 382.243C2126.83 387.842 2131.01 393.394 2135.22 398.98C2144.27 411.017 2153.45 423.212 2160 436.376H2122.24C2121.13 436.376 2119.9 436.445 2118.62 436.518C2114.44 436.755 2109.65 437.026 2106.45 435.082C2102.2 432.487 2098.8 427.01 2095.78 422.154C2094.74 420.478 2093.74 418.876 2092.77 417.492C2088.44 411.314 2084.17 405.099 2079.89 398.884L2079.89 398.88L2079.89 398.879C2074.32 390.791 2068.76 382.702 2063.08 374.689C2053.91 361.748 2044.84 348.735 2035.78 335.722L2035.77 335.72C2024.32 319.288 2012.88 302.855 2001.22 286.565C1996.94 280.587 1992.78 274.525 1988.61 268.464C1986.11 264.84 1983.62 261.216 1981.11 257.61C1980.21 256.318 1979.21 255.006 1978.2 253.67C1975.24 249.776 1972.13 245.676 1970.75 241.244C1969.55 237.39 1969.7 233 1969.84 228.81L1969.84 228.809C1969.88 227.47 1969.93 226.152 1969.93 224.878V222.398L1946.16 222.396L1918.75 249.807L1891.87 222.396L1870.49 222.397V437.06H1826.43V197.866H1870.49V211.471L1891.9 211.47L1919.03 184.338L1946.16 211.47L1969.93 211.471V195.923H2005.17C2008.34 195.923 2011.48 195.959 2014.6 195.994L2014.6 195.994C2037.09 196.249 2058.23 196.489 2078.18 183.202C2123.31 153.155 2120.83 89.5914 2078.18 59.0802C2057.93 44.5914 2033.43 45.2331 2009.51 45.8594C2004.67 45.9861 1999.86 46.1122 1995.1 46.1122H1826.43ZM1918.83 234.279L1901.85 216.97L1919.03 199.791L1936.17 216.933L1918.83 234.279Z" fill="white"/>
<path fill-rule="evenodd" clip-rule="evenodd" d="M89.44 44.6763H26.4337C43.8938 19.8865 75.8823 3.81421 105.735 0.828942C117.556 -0.353205 129.783 -0.0203129 141.889 0.30929C147.504 0.462146 153.092 0.614295 158.602 0.614295H215.246C218.288 0.614295 221.378 0.530385 224.485 0.445992C231.932 0.243785 239.48 0.0388059 246.714 0.978623C280.312 5.34303 310.864 23.2841 330.402 50.9709C336.931 60.2219 342.793 71.6014 346.106 82.4438C350.276 96.0917 352.439 110.991 352.449 125.247H308.393C308.393 87.5512 284.707 55.6545 247.973 45.6642C242.098 44.0665 235.525 44.2992 229.201 44.5232C227.025 44.6003 224.877 44.6763 222.798 44.6763H100.365V54.2007L81.2463 66.493V104.538L41.8621 104.156L27.3038 111.303V115.176H42.7974C43.5463 151.484 66.7941 185.241 103.217 193.739C115.948 196.709 129.801 196.338 143.224 195.978H143.225C147.574 195.862 151.879 195.747 156.085 195.747H215.246C217.481 195.747 219.719 195.73 221.958 195.713C233.188 195.628 244.446 195.543 255.526 197.59C285.014 203.037 311.899 220.817 329.595 244.844C336.231 253.854 341.809 264.428 345.311 275.058C350.142 289.717 351.19 303.794 351.19 319.12H336.635V329.413L317.516 341.706V379.751L278.132 379.368L263.574 386.516V390.879H305.875C307.309 390.879 308.807 390.817 310.333 390.754C315.252 390.551 320.464 390.336 324.757 392.137C320.023 395.758 315.664 399.618 311.348 403.44C301.721 411.965 292.311 420.298 279.442 425.354C252.98 435.75 224.334 435.403 196.192 435.062H196.184C191.188 435.001 186.209 434.941 181.26 434.941C174.321 434.941 167.235 435.114 160.076 435.29H160.074C133.77 435.935 106.473 436.604 81.8185 428.772C66.3876 423.868 52.7062 415.444 40.2799 405.211C32.6116 398.897 26.5268 391.443 20.8562 383.325C14.0325 373.56 9.08437 363.18 5.46799 351.852C0.994402 337.838 0 323.668 0 309.049H42.7974C43.535 344.803 64.2124 377.144 99.441 387.644C114.422 392.11 130.825 391.629 146.761 391.162C151.608 391.019 156.412 390.879 161.12 390.879H252.649V379.708L271.426 370.489V333.26H310.449L325.71 323.448V319.12H308.393C308.389 284.143 285.729 252.044 251.749 241.848C238.074 237.744 223.332 238.067 208.951 238.383C205.141 238.467 201.356 238.55 197.623 238.55H134.686C131.5 238.55 128.25 238.65 124.975 238.751C117.254 238.99 109.402 239.233 101.958 238.172C71.1053 233.773 42.1894 216.844 23.4089 191.97C15.9634 182.109 10.3683 170.82 6.15275 159.238C1.06616 145.262 0 129.924 0 115.176H16.3787V104.495L35.1562 95.276V58.0471H74.1794L89.44 48.2353V44.6763ZM306.591 344.186H282.351V368.482L306.591 368.718V344.186ZM46.0812 68.9736H70.3212V93.505L46.0812 93.2696V68.9736Z" fill="white"/>
</svg>
