<svg xmlns="http://www.w3.org/2000/svg" width="60" height="60" viewBox="0 0 60 60" fill="white">
<rect x="0.5" y="0.5" width="59" height="59" fill="#171717" stroke="white"/>
<path d="M38.4796 43.0819L38.1533 43.4607C38.2482 43.5424 38.3703 43.5856 38.4955 43.5816L38.4796 43.0819ZM35.5969 39.6239C35.4257 39.4071 35.1113 39.3702 34.8946 39.5413C34.6779 39.7124 34.6409 40.0268 34.812 40.2436L35.5969 39.6239ZM36.9804 38.3191L36.8064 37.8503C36.7998 37.8528 36.7932 37.8554 36.7867 37.8581L36.9804 38.3191ZM33.0788 39.4763L32.9948 38.9833L32.9867 38.9848L33.0788 39.4763ZM26.1096 39.4494L26.0149 39.9403L26.0179 39.9409L26.1096 39.4494ZM22.1542 38.2924L21.9719 38.758L21.9724 38.7582L22.1542 38.2924ZM20.1897 37.3775L19.9117 37.7931C19.9226 37.8004 19.9339 37.8073 19.9454 37.8138L20.1897 37.3775ZM19.9476 37.2428L20.2252 36.827C20.2079 36.8154 20.1898 36.8049 20.1712 36.7956L19.9476 37.2428ZM19.84 37.1623L20.1936 36.8087C20.1607 36.7759 20.1235 36.7478 20.0829 36.7252L19.84 37.1623ZM24.188 40.1896C24.359 39.9728 24.322 39.6584 24.1052 39.4873C23.8885 39.3163 23.5741 39.3533 23.403 39.5701L24.188 40.1896ZM20.5205 43.0819L20.5046 43.5816C20.6319 43.5857 20.756 43.541 20.8514 43.4567L20.5205 43.0819ZM13.7858 38.0233H13.2858C13.2858 38.05 13.2879 38.0767 13.2922 38.1032L13.7858 38.0233ZM17.6605 18.9684L17.3605 18.5684C17.2839 18.6258 17.2254 18.704 17.192 18.7937L17.6605 18.9684ZM25.2216 16.143L25.7193 16.0956C25.6953 15.8432 25.4861 15.6487 25.2325 15.6432L25.2216 16.143ZM24.9929 19.016C25.0191 19.2909 25.2632 19.4925 25.5381 19.4663C25.813 19.4401 26.0146 19.1961 25.9884 18.9212L24.9929 19.016ZM32.9057 19.0125C32.8705 19.2864 33.064 19.5369 33.3379 19.5721C33.6118 19.6073 33.8624 19.4138 33.8976 19.1399L32.9057 19.0125ZM33.7783 16.1432L33.7674 15.6434C33.5201 15.6488 33.3139 15.8342 33.2824 16.0795L33.7783 16.1432ZM41.3394 18.9686L41.8079 18.7939C41.7745 18.7042 41.716 18.626 41.6394 18.5686L41.3394 18.9686ZM45.2143 38.0233L45.7079 38.1032C45.7122 38.0768 45.7143 38.0501 45.7143 38.0233H45.2143ZM27.2127 32.5339L26.7127 32.5257V32.5339H27.2127ZM38.4796 43.0819C38.8059 42.703 38.806 42.703 38.8059 42.703C38.8059 42.703 38.8059 42.703 38.8059 42.703C38.8058 42.7029 38.8057 42.7028 38.8056 42.7027C38.8053 42.7025 38.8049 42.7022 38.8044 42.7017C38.8033 42.7007 38.8016 42.6993 38.7993 42.6973C38.7948 42.6934 38.788 42.6875 38.779 42.6797C38.761 42.6642 38.7345 42.6412 38.7003 42.6114C38.632 42.5519 38.5333 42.4656 38.4122 42.3588C38.17 42.1451 37.8388 41.8497 37.483 41.523C36.7601 40.8592 35.9716 40.0985 35.5969 39.6239L34.812 40.2436C35.2446 40.7914 36.0937 41.6048 36.8066 42.2595C37.1686 42.592 37.5049 42.8919 37.7506 43.1087C37.8735 43.2171 37.9739 43.3049 38.0437 43.3657C38.0786 43.396 38.1059 43.4197 38.1245 43.4358C38.1338 43.4438 38.1409 43.45 38.1458 43.4542C38.1482 43.4563 38.15 43.4579 38.1513 43.459C38.1519 43.4595 38.1524 43.4599 38.1528 43.4602C38.1529 43.4604 38.1531 43.4605 38.1532 43.4606C38.1532 43.4606 38.1533 43.4607 38.1533 43.4607C38.1533 43.4607 38.1533 43.4607 38.4796 43.0819ZM39.7998 36.3141C38.7282 37.0198 37.7127 37.514 36.8064 37.8503L37.1543 38.7878C38.1316 38.4252 39.2149 37.8967 40.3498 37.1493L39.7998 36.3141ZM36.7867 37.8581C35.4741 38.4096 34.2192 38.7748 32.9949 38.9834L33.1628 39.9692C34.4676 39.7469 35.796 39.3591 37.1741 38.78L36.7867 37.8581ZM32.9867 38.9848C30.4754 39.4556 28.171 39.3256 26.2014 38.9579L26.0179 39.9409C28.0843 40.3267 30.5157 40.4655 33.1709 39.9677L32.9867 38.9848ZM26.2044 38.9585C24.707 38.6694 23.4181 38.2489 22.3359 37.8266L21.9724 38.7582C23.0964 39.1968 24.4445 39.6371 26.0149 39.9403L26.2044 38.9585ZM22.3364 37.8268C21.7312 37.5899 21.0808 37.3034 20.4339 36.9412L19.9454 37.8138C20.6443 38.205 21.3392 38.5104 21.9719 38.758L22.3364 37.8268ZM20.4677 36.9619C20.3974 36.9149 20.3297 36.8816 20.2924 36.863C20.2488 36.8412 20.2357 36.834 20.2252 36.827L19.67 37.6587C19.7402 37.7056 19.8079 37.7388 19.845 37.7573C19.8885 37.7791 19.9014 37.7862 19.9117 37.7931L20.4677 36.9619ZM20.1712 36.7956C20.1727 36.7964 20.1763 36.7983 20.1811 36.8014C20.1861 36.8045 20.191 36.8081 20.1956 36.8117C20.2 36.8152 20.2027 36.8177 20.2028 36.8179C20.2029 36.8179 20.2027 36.8178 20.2023 36.8174C20.202 36.8171 20.2014 36.8166 20.2007 36.8158C20.199 36.8141 20.197 36.8122 20.1936 36.8087L19.4865 37.5158C19.5245 37.5538 19.5972 37.6266 19.724 37.6901L20.1712 36.7956ZM20.0829 36.7252C19.8496 36.5956 19.6693 36.4861 19.5487 36.4099C19.4884 36.3718 19.4431 36.3421 19.4135 36.3224C19.3988 36.3126 19.388 36.3052 19.3812 36.3006C19.3779 36.2983 19.3755 36.2967 19.3742 36.2958C19.3735 36.2953 19.3731 36.295 19.373 36.2949C19.3729 36.2949 19.3729 36.2949 19.3729 36.2949C19.373 36.2949 19.373 36.295 19.3731 36.295C19.3731 36.295 19.3731 36.2951 19.3732 36.2951C19.3732 36.2951 19.3732 36.2951 19.3732 36.2951C19.3733 36.2952 19.3733 36.2952 19.0866 36.7048C18.7999 37.1144 18.7999 37.1145 18.7999 37.1145C18.8 37.1145 18.8 37.1145 18.8 37.1145C18.8001 37.1146 18.8001 37.1146 18.8002 37.1147C18.8003 37.1148 18.8005 37.1149 18.8006 37.115C18.8009 37.1152 18.8013 37.1155 18.8018 37.1158C18.8027 37.1164 18.8038 37.1172 18.8053 37.1182C18.8081 37.1202 18.812 37.1228 18.817 37.1262C18.8268 37.133 18.8408 37.1425 18.8589 37.1545C18.8949 37.1785 18.9472 37.2127 19.0147 37.2554C19.1497 37.3406 19.3461 37.4598 19.5972 37.5993L20.0829 36.7252ZM23.403 39.5701C23.0266 40.047 22.236 40.8224 21.5134 41.4995C21.1573 41.8332 20.826 42.1354 20.5836 42.3543C20.4625 42.4636 20.3637 42.5521 20.2953 42.6131C20.2611 42.6436 20.2345 42.6672 20.2165 42.6831C20.2076 42.6911 20.2007 42.6972 20.1962 42.7012C20.1939 42.7032 20.1922 42.7047 20.1911 42.7057C20.1905 42.7062 20.1901 42.7066 20.1898 42.7068C20.1897 42.7069 20.1896 42.707 20.1896 42.707C20.1895 42.7071 20.1895 42.7071 20.1895 42.7071C20.1895 42.7071 20.1895 42.7071 20.5205 43.0819C20.8514 43.4567 20.8514 43.4566 20.8515 43.4566C20.8515 43.4566 20.8515 43.4566 20.8516 43.4565C20.8517 43.4564 20.8518 43.4563 20.852 43.4562C20.8523 43.4559 20.8528 43.4554 20.8534 43.4549C20.8547 43.4538 20.8565 43.4521 20.859 43.45C20.8638 43.4457 20.8709 43.4394 20.8802 43.4312C20.8988 43.4147 20.926 43.3905 20.9609 43.3594C21.0306 43.2972 21.1309 43.2074 21.2538 43.0965C21.4993 42.8748 21.8354 42.5682 22.1972 42.2292C22.9103 41.561 23.7573 40.7353 24.188 40.1896L23.403 39.5701ZM20.5363 42.5821C17.7217 42.493 16.1757 41.3073 15.3216 40.18C14.8883 39.6081 14.6256 39.0405 14.4718 38.6166C14.395 38.4052 14.346 38.2311 14.3165 38.1124C14.3018 38.0532 14.292 38.0079 14.2861 37.9789C14.2832 37.9645 14.2813 37.9541 14.2802 37.9481C14.2796 37.945 14.2793 37.9431 14.2792 37.9424C14.2791 37.942 14.2791 37.9419 14.2791 37.942C14.2791 37.9421 14.2792 37.9423 14.2792 37.9425C14.2792 37.9426 14.2793 37.9429 14.2793 37.9429C14.2793 37.9432 14.2793 37.9435 13.7858 38.0233C13.2922 38.1032 13.2922 38.1035 13.2923 38.1038C13.2923 38.1039 13.2924 38.1043 13.2924 38.1045C13.2925 38.105 13.2926 38.1057 13.2927 38.1063C13.2929 38.1077 13.2932 38.1094 13.2935 38.1113C13.2942 38.1152 13.2951 38.1203 13.2962 38.1265C13.2985 38.1389 13.3017 38.1559 13.306 38.1771C13.3146 38.2196 13.3275 38.2792 13.346 38.3534C13.3828 38.5018 13.4418 38.7097 13.5318 38.9578C13.7115 39.453 14.0175 40.1147 14.5245 40.7839C15.5511 42.1388 17.3724 43.4824 20.5046 43.5816L20.5363 42.5821ZM14.2858 38.0233C14.2858 33.7547 15.242 29.0394 16.2067 25.374C16.688 23.545 17.1694 21.985 17.5302 20.8829C17.7106 20.3319 17.8608 19.8957 17.9656 19.5978C18.0181 19.4488 18.0591 19.3345 18.087 19.2577C18.1009 19.2193 18.1115 19.1903 18.1186 19.1711C18.1222 19.1615 18.1248 19.1543 18.1265 19.1496C18.1274 19.1473 18.128 19.1456 18.1285 19.1445C18.1287 19.1439 18.1288 19.1435 18.1289 19.1433C18.1289 19.1432 18.129 19.1431 18.129 19.1431C18.129 19.1431 18.129 19.1431 17.6605 18.9684C17.192 18.7937 17.192 18.7938 17.1919 18.7939C17.1919 18.794 17.1918 18.7942 17.1917 18.7944C17.1916 18.7948 17.1914 18.7954 17.1911 18.7961C17.1906 18.7975 17.1898 18.7996 17.1888 18.8023C17.1868 18.8076 17.1839 18.8155 17.1801 18.8258C17.1725 18.8464 17.1614 18.8768 17.147 18.9167C17.1181 18.9963 17.0759 19.1137 17.0224 19.2658C16.9153 19.57 16.7628 20.0132 16.5799 20.5717C16.2142 21.6886 15.7269 23.2677 15.2396 25.1194C14.2669 28.8154 13.2858 33.6276 13.2858 38.0233H14.2858ZM17.9605 19.3684C19.8343 17.963 21.6597 17.2818 23.0126 16.9517C23.6891 16.7866 24.2466 16.7095 24.6314 16.6737C24.8238 16.6558 24.9727 16.6482 25.0716 16.645C25.121 16.6434 25.1579 16.6429 25.1813 16.6428C25.1931 16.6428 25.2014 16.6428 25.2064 16.6429C25.2088 16.6429 25.2104 16.6429 25.2111 16.6429C25.2115 16.6429 25.2116 16.6429 25.2115 16.6429C25.2115 16.6429 25.2114 16.6429 25.2113 16.6429C25.2112 16.6429 25.211 16.6429 25.211 16.6429C25.2108 16.6429 25.2106 16.6429 25.2216 16.143C25.2325 15.6432 25.2323 15.6432 25.2321 15.6432C25.232 15.6432 25.2318 15.6431 25.2316 15.6431C25.2312 15.6431 25.2308 15.6431 25.2303 15.6431C25.2293 15.6431 25.2281 15.6431 25.2266 15.6431C25.2238 15.643 25.22 15.643 25.2154 15.6429C25.2061 15.6428 25.1933 15.6428 25.1771 15.6429C25.1447 15.643 25.0986 15.6436 25.0396 15.6455C24.9217 15.6493 24.7524 15.6581 24.5387 15.678C24.1112 15.7178 23.505 15.8022 22.7755 15.9802C21.3165 16.3362 19.3614 17.0677 17.3605 18.5684L17.9605 19.3684ZM24.7238 16.1905L24.9929 19.016L25.9884 18.9212L25.7193 16.0956L24.7238 16.1905ZM33.8976 19.1399L34.2743 16.2069L33.2824 16.0795L32.9057 19.0125L33.8976 19.1399ZM33.7783 16.1432C33.7893 16.6431 33.7891 16.6431 33.789 16.6431C33.7889 16.6431 33.7888 16.6431 33.7887 16.6431C33.7885 16.6431 33.7884 16.6431 33.7884 16.6431C33.7883 16.6431 33.7884 16.6431 33.7888 16.6431C33.7895 16.6431 33.7911 16.6431 33.7936 16.6431C33.7985 16.643 33.8069 16.643 33.8186 16.643C33.8421 16.6431 33.8789 16.6436 33.9283 16.6452C34.0272 16.6483 34.1762 16.6559 34.3685 16.6738C34.7533 16.7097 35.3109 16.7867 35.9873 16.9518C37.3402 17.2819 39.1656 17.9631 41.0394 19.3686L41.6394 18.5686C39.6385 17.0678 37.6834 16.3363 36.2244 15.9803C35.4949 15.8023 34.8887 15.718 34.4612 15.6781C34.2474 15.6582 34.0782 15.6495 33.9603 15.6457C33.9013 15.6438 33.8552 15.6432 33.8228 15.643C33.8066 15.643 33.7938 15.643 33.7845 15.6431C33.7799 15.6431 33.7761 15.6432 33.7732 15.6432C33.7718 15.6433 33.7706 15.6433 33.7696 15.6433C33.7691 15.6433 33.7687 15.6433 33.7683 15.6433C33.7681 15.6433 33.7679 15.6433 33.7678 15.6433C33.7676 15.6433 33.7674 15.6434 33.7783 16.1432ZM41.3394 18.9686C40.8709 19.1433 40.8709 19.1433 40.8709 19.1433C40.871 19.1433 40.871 19.1434 40.871 19.1435C40.8711 19.1437 40.8713 19.1441 40.8715 19.1447C40.8719 19.1458 40.8725 19.1475 40.8734 19.1498C40.8751 19.1545 40.8778 19.1617 40.8813 19.1713C40.8884 19.1905 40.899 19.2195 40.9129 19.2579C40.9408 19.3347 40.9819 19.449 41.0343 19.598C41.1391 19.8958 41.2893 20.3321 41.4697 20.883C41.8306 21.9852 42.312 23.5451 42.7933 25.3741C43.758 29.0394 44.7143 33.7547 44.7143 38.0233H45.7143C45.7143 33.6276 44.7332 28.8155 43.7604 25.1195C43.2731 23.2679 42.7857 21.6887 42.4201 20.5719C42.2372 20.0133 42.0846 19.5701 41.9776 19.266C41.924 19.1139 41.8819 18.9965 41.853 18.9168C41.8385 18.877 41.8274 18.8466 41.8198 18.826C41.816 18.8157 41.8131 18.8078 41.8111 18.8024C41.8101 18.7997 41.8093 18.7977 41.8088 18.7963C41.8085 18.7955 41.8083 18.795 41.8082 18.7946C41.8081 18.7944 41.808 18.7942 41.808 18.7941C41.8079 18.794 41.8079 18.7939 41.3394 18.9686ZM45.2143 38.0233C44.7208 37.9434 44.7208 37.9432 44.7208 37.9429C44.7208 37.9429 44.7209 37.9426 44.7209 37.9425C44.7209 37.9423 44.721 37.9421 44.721 37.942C44.721 37.9418 44.721 37.942 44.7209 37.9423C44.7208 37.9431 44.7205 37.945 44.7199 37.948C44.7188 37.9541 44.7169 37.9644 44.714 37.9789C44.7081 38.0079 44.6983 38.0532 44.6836 38.1124C44.6541 38.2311 44.605 38.4052 44.5283 38.6166C44.3744 39.0405 44.1118 39.6081 43.6784 40.18C42.8243 41.3073 41.2783 42.493 38.4638 42.5821L38.4955 43.5816C41.6276 43.4824 43.4489 42.1388 44.4755 40.7839C44.9825 40.1147 45.2885 39.453 45.4683 38.9578C45.5583 38.7097 45.6173 38.5019 45.6541 38.3534C45.6726 38.2792 45.6855 38.2196 45.6941 38.1772C45.6984 38.1559 45.7016 38.1389 45.7039 38.1265C45.705 38.1203 45.7059 38.1152 45.7065 38.1113C45.7069 38.1094 45.7072 38.1077 45.7074 38.1064C45.7075 38.1057 45.7076 38.1051 45.7077 38.1045C45.7077 38.1043 45.7078 38.1039 45.7078 38.1038C45.7079 38.1035 45.7079 38.1032 45.2143 38.0233ZM24.4682 29.0473C22.6164 29.0473 21.2237 30.6603 21.2237 32.5339H22.2237C22.2237 31.125 23.2525 30.0473 24.4682 30.0473V29.0473ZM21.2237 32.5339C21.2237 34.4111 22.6463 36.0208 24.4682 36.0208V35.0208C23.2763 35.0208 22.2237 33.9398 22.2237 32.5339H21.2237ZM24.4682 36.0208C26.32 36.0208 27.7127 34.4078 27.7127 32.5339H26.7127C26.7127 33.9431 25.684 35.0208 24.4682 35.0208V36.0208ZM27.7127 32.5422C27.7438 30.6542 26.3128 29.0473 24.4682 29.0473V30.0473C25.6909 30.0473 26.7358 31.1311 26.7128 32.5257L27.7127 32.5422ZM34.2897 29.0473C32.4379 29.0473 31.0449 30.6602 31.0449 32.5339H32.0449C32.0449 31.125 33.0737 30.0473 34.2897 30.0473V29.0473ZM31.0449 32.5339C31.0449 34.4111 32.4679 36.0208 34.2897 36.0208V35.0208C33.0978 35.0208 32.0449 33.9397 32.0449 32.5339H31.0449ZM34.2897 36.0208C36.1414 36.0208 37.5341 34.4077 37.5341 32.5339H36.5341C36.5341 33.9431 35.5054 35.0208 34.2897 35.0208V36.0208ZM37.5341 32.5339C37.5341 30.6603 36.1414 29.0473 34.2897 29.0473V30.0473C35.5054 30.0473 36.5341 31.125 36.5341 32.5339H37.5341ZM20.7599 22.1943C24.0503 20.3998 26.7934 19.5273 29.505 19.5259C32.2164 19.5246 34.9559 20.3942 38.2393 22.1938L38.72 21.3168C35.3533 19.4716 32.4446 18.5245 29.5045 18.5259C26.5647 18.5274 23.6532 19.4772 20.2811 21.3163L20.7599 22.1943Z" fill="white"/>
</svg>