<svg width="126" height="37" viewBox="0 0 126 37" fill="none" xmlns="http://www.w3.org/2000/svg">
<path d="M124.674 5.5227L118.955 11.2631L124.674 17.0035V22.6054H122.071L114.854 15.3606L110.752 11.2829L114.854 7.16561L116.471 5.54246H110.752V11.2829V22.6252H105.073V5.5227V0H110.752H124.674V5.5227ZM80.5232 0V5.66124H102.766V0H80.5232ZM80.5232 14.1333H102.766V8.49185H80.5232V14.1333ZM80.5232 22.6252H102.766V16.9639H80.5232V22.6252ZM23.3189 0V22.6252H29.8456V0H23.3189ZM72.6356 0V8.49185H61.6327V0H56.0325V8.49185V14.1135V22.6054H61.6327V14.1135H72.6356V22.6054H78.2357V14.1135V8.49185V0H72.6356ZM53.745 0V5.68104V13.4405V14.3114H37.4968V22.6054H32.1529V14.3312V9.38262V5.68104V0H38.6797H48.1449H53.745ZM48.1449 5.68104H37.4968L41.1839 9.38262H48.1449V5.68104ZM21.0314 0H1.6084V5.66124L13.2228 16.9639H1.6084V22.6252H21.0314V16.9639L9.41705 5.66124H21.0314V0Z" fill="#F4B533"/>
<path d="M5.31132 32.8939C5.75895 32.9764 6.12691 33.1976 6.41521 33.5576C6.70352 33.9176 6.84767 34.3301 6.84767 34.7951C6.84767 35.2151 6.74145 35.5863 6.52902 35.9088C6.32417 36.2238 6.02449 36.4713 5.62997 36.6513C5.23545 36.8313 4.76885 36.9213 4.23018 36.9213H0.804688V29.069H4.08224C4.62091 29.069 5.08371 29.1553 5.47064 29.3278C5.86516 29.5003 6.16105 29.7403 6.35831 30.0478C6.56316 30.3552 6.66558 30.704 6.66558 31.094C6.66558 31.5515 6.5404 31.9339 6.29003 32.2414C6.04725 32.5489 5.72101 32.7664 5.31132 32.8939ZM2.39794 32.3089H3.85463C4.23398 32.3089 4.52607 32.2264 4.73092 32.0614C4.93577 31.8889 5.03819 31.6452 5.03819 31.3302C5.03819 31.0152 4.93577 30.7715 4.73092 30.599C4.52607 30.4265 4.23398 30.3402 3.85463 30.3402H2.39794V32.3089ZM4.00257 35.6388C4.38951 35.6388 4.68919 35.5488 4.90162 35.3688C5.12164 35.1888 5.23166 34.9338 5.23166 34.6039C5.23166 34.2664 5.11785 34.0039 4.89024 33.8164C4.66264 33.6214 4.35537 33.5239 3.96843 33.5239H2.39794V35.6388H4.00257Z" fill="white"/>
<path d="M13.4435 35.4251H10.2797L9.75625 36.9213H8.08333L10.9398 29.0578H12.7948L15.6513 36.9213H13.967L13.4435 35.4251ZM13.011 34.1651L11.8616 30.8802L10.7122 34.1651H13.011Z" fill="white"/>
<path d="M16.7873 32.9839C16.7873 32.2114 16.9618 31.5215 17.3108 30.914C17.6674 30.299 18.1491 29.8228 18.7561 29.4853C19.3706 29.1403 20.0572 28.9678 20.8159 28.9678C21.7036 28.9678 22.4813 29.1928 23.1489 29.6428C23.8166 30.0928 24.2832 30.7152 24.5487 31.5102H22.7165C22.5344 31.1352 22.2764 30.854 21.9426 30.6665C21.6164 30.479 21.237 30.3852 20.8046 30.3852C20.3417 30.3852 19.9283 30.494 19.5641 30.7115C19.2075 30.9215 18.9268 31.2215 18.7219 31.6115C18.5247 32.0014 18.4261 32.4589 18.4261 32.9839C18.4261 33.5014 18.5247 33.9589 18.7219 34.3564C18.9268 34.7463 19.2075 35.0501 19.5641 35.2676C19.9283 35.4776 20.3417 35.5826 20.8046 35.5826C21.237 35.5826 21.6164 35.4888 21.9426 35.3013C22.2764 35.1063 22.5344 34.8213 22.7165 34.4464H24.5487C24.2832 35.2488 23.8166 35.8751 23.1489 36.325C22.4888 36.7675 21.7112 36.9888 20.8159 36.9888C20.0572 36.9888 19.3706 36.82 18.7561 36.4825C18.1491 36.1375 17.6674 35.6613 17.3108 35.0538C16.9618 34.4464 16.7873 33.7564 16.7873 32.9839Z" fill="white"/>
<path d="M30.8486 36.9213L27.958 33.4226V36.9213H26.3648V29.069H27.958V32.5902L30.8486 29.069H32.7719L29.4944 32.9614L32.8629 36.9213H30.8486Z" fill="white"/>
<path d="M35.9594 30.3402V32.3089H38.6338V33.5576H35.9594V35.6388H38.9752V36.9213H34.3661V29.0578H38.9752V30.3402H35.9594Z" fill="white"/>
<path d="M44.9752 36.9213L43.2226 33.8614H42.4715V36.9213H40.8783V29.069H43.86C44.4745 29.069 44.998 29.1778 45.4304 29.3953C45.8629 29.6053 46.1853 29.894 46.3978 30.2615C46.6178 30.6215 46.7278 31.0265 46.7278 31.4765C46.7278 31.9939 46.5761 32.4627 46.2726 32.8827C45.9691 33.2951 45.5177 33.5801 44.9183 33.7376L46.8189 36.9213H44.9752ZM42.4715 32.6802H43.803C44.2355 32.6802 44.5579 32.5789 44.7704 32.3764C44.9828 32.1664 45.089 31.8777 45.089 31.5102C45.089 31.1502 44.9828 30.8727 44.7704 30.6777C44.5579 30.4752 44.2355 30.374 43.803 30.374H42.4715V32.6802Z" fill="white"/>
<path d="M54.5678 29.069C55.4024 29.069 56.1345 29.2303 56.7642 29.5528C57.4015 29.8753 57.8909 30.3365 58.2323 30.9365C58.5813 31.529 58.7558 32.2189 58.7558 33.0064C58.7558 33.7939 58.5813 34.4839 58.2323 35.0763C57.8909 35.6613 57.4015 36.1151 56.7642 36.4375C56.1345 36.76 55.4024 36.9213 54.5678 36.9213H51.791V29.069H54.5678ZM54.5109 35.5826C55.3455 35.5826 55.9904 35.3576 56.4456 34.9076C56.9008 34.4576 57.1284 33.8239 57.1284 33.0064C57.1284 32.1889 56.9008 31.5515 56.4456 31.094C55.9904 30.629 55.3455 30.3965 54.5109 30.3965H53.3843V35.5826H54.5109Z" fill="white"/>
<path d="M65.2744 35.4251H62.1107L61.5872 36.9213H59.9143L62.7708 29.0578H64.6258L67.4822 36.9213H65.7979L65.2744 35.4251ZM64.842 34.1651L63.6926 30.8802L62.5432 34.1651H64.842Z" fill="white"/>
<path d="M71.7478 37C71.194 37 70.6933 36.9063 70.2456 36.7188C69.8056 36.5313 69.4566 36.2613 69.1986 35.9088C68.9407 35.5563 68.8079 35.1401 68.8003 34.6601H70.5074C70.5301 34.9826 70.6439 35.2376 70.8488 35.4251C71.0612 35.6126 71.3495 35.7063 71.7137 35.7063C72.0854 35.7063 72.3775 35.6201 72.59 35.4476C72.8024 35.2676 72.9086 35.0351 72.9086 34.7501C72.9086 34.5176 72.8366 34.3264 72.6924 34.1764C72.5483 34.0264 72.3662 33.9101 72.1461 33.8276C71.9337 33.7376 71.6378 33.6401 71.2585 33.5351C70.7426 33.3851 70.3215 33.2389 69.9953 33.0964C69.6766 32.9464 69.3997 32.7252 69.1645 32.4327C68.9369 32.1327 68.8231 31.7352 68.8231 31.2402C68.8231 30.7752 68.9407 30.3702 69.1759 30.0253C69.4111 29.6803 69.7411 29.4178 70.166 29.2378C70.5908 29.0503 71.0764 28.9565 71.6227 28.9565C72.442 28.9565 73.1059 29.1553 73.6142 29.5528C74.1301 29.9428 74.4146 30.4902 74.4677 31.1952H72.7152C72.7 30.9252 72.5824 30.704 72.3624 30.5315C72.1499 30.3515 71.8654 30.2615 71.5088 30.2615C71.1978 30.2615 70.9474 30.3402 70.7577 30.4977C70.5757 30.6552 70.4846 30.884 70.4846 31.184C70.4846 31.394 70.5529 31.5702 70.6895 31.7127C70.8336 31.8477 71.0081 31.9602 71.213 32.0502C71.4254 32.1327 71.7213 32.2302 72.1006 32.3427C72.6165 32.4927 73.0376 32.6427 73.3639 32.7927C73.6901 32.9427 73.9708 33.1677 74.206 33.4676C74.4412 33.7676 74.5588 34.1614 74.5588 34.6489C74.5588 35.0688 74.4488 35.4588 74.2288 35.8188C74.0087 36.1788 73.6863 36.4675 73.2614 36.685C72.8366 36.895 72.332 37 71.7478 37Z" fill="white"/>
<path d="M82.9845 29.069V36.9213H81.3913V33.5801H77.9885V36.9213H76.3953V29.069H77.9885V32.2977H81.3913V29.069H82.9845Z" fill="white"/>
<path d="M89.5146 32.8939C89.9622 32.9764 90.3302 33.1976 90.6185 33.5576C90.9068 33.9176 91.0509 34.3301 91.0509 34.7951C91.0509 35.2151 90.9447 35.5863 90.7323 35.9088C90.5274 36.2238 90.2277 36.4713 89.8332 36.6513C89.4387 36.8313 88.9721 36.9213 88.4334 36.9213H85.0079V29.069H88.2855C88.8242 29.069 89.287 29.1553 89.6739 29.3278C90.0684 29.5003 90.3643 29.7403 90.5616 30.0478C90.7664 30.3552 90.8688 30.704 90.8688 31.094C90.8688 31.5515 90.7436 31.9339 90.4933 32.2414C90.2505 32.5489 89.9243 32.7664 89.5146 32.8939ZM86.6012 32.3089H88.0579C88.4372 32.3089 88.7293 32.2264 88.9342 32.0614C89.139 31.8889 89.2414 31.6452 89.2414 31.3302C89.2414 31.0152 89.139 30.7715 88.9342 30.599C88.7293 30.4265 88.4372 30.3402 88.0579 30.3402H86.6012V32.3089ZM88.2058 35.6388C88.5928 35.6388 88.8924 35.5488 89.1049 35.3688C89.3249 35.1888 89.4349 34.9338 89.4349 34.6039C89.4349 34.2664 89.3211 34.0039 89.0935 33.8164C88.8659 33.6214 88.5586 33.5239 88.1717 33.5239H86.6012V35.6388H88.2058Z" fill="white"/>
<path d="M96.4632 37C95.7197 37 95.0368 36.8275 94.4147 36.4825C93.7926 36.1375 93.2994 35.6613 92.9353 35.0538C92.5711 34.4389 92.389 33.7451 92.389 32.9727C92.389 32.2077 92.5711 31.5215 92.9353 30.914C93.2994 30.299 93.7926 29.819 94.4147 29.474C95.0368 29.129 95.7197 28.9565 96.4632 28.9565C97.2143 28.9565 97.8971 29.129 98.5116 29.474C99.1338 29.819 99.6231 30.299 99.9797 30.914C100.344 31.5215 100.526 32.2077 100.526 32.9727C100.526 33.7451 100.344 34.4389 99.9797 35.0538C99.6231 35.6613 99.1338 36.1375 98.5116 36.4825C97.8895 36.8275 97.2067 37 96.4632 37ZM96.4632 35.5938C96.9411 35.5938 97.3622 35.4888 97.7264 35.2788C98.0906 35.0613 98.3751 34.7538 98.5799 34.3564C98.7848 33.9589 98.8872 33.4976 98.8872 32.9727C98.8872 32.4477 98.7848 31.9902 98.5799 31.6002C98.3751 31.2027 98.0906 30.899 97.7264 30.689C97.3622 30.479 96.9411 30.374 96.4632 30.374C95.9852 30.374 95.5603 30.479 95.1886 30.689C94.8244 30.899 94.5399 31.2027 94.335 31.6002C94.1302 31.9902 94.0278 32.4477 94.0278 32.9727C94.0278 33.4976 94.1302 33.9589 94.335 34.3564C94.5399 34.7538 94.8244 35.0613 95.1886 35.2788C95.5603 35.4888 95.9852 35.5938 96.4632 35.5938Z" fill="white"/>
<path d="M107.037 35.4251H103.874L103.35 36.9213H101.677L104.534 29.0578H106.389L109.245 36.9213H107.561L107.037 35.4251ZM106.605 34.1651L105.455 30.8802L104.306 34.1651H106.605Z" fill="white"/>
<path d="M114.865 36.9213L113.112 33.8614H112.361V36.9213H110.768V29.069H113.75C114.364 29.069 114.888 29.1778 115.32 29.3953C115.753 29.6053 116.075 29.894 116.288 30.2615C116.508 30.6215 116.618 31.0265 116.618 31.4765C116.618 31.9939 116.466 32.4627 116.162 32.8827C115.859 33.2951 115.407 33.5801 114.808 33.7376L116.709 36.9213H114.865ZM112.361 32.6802H113.693C114.125 32.6802 114.448 32.5789 114.66 32.3764C114.873 32.1664 114.979 31.8777 114.979 31.5102C114.979 31.1502 114.873 30.8727 114.66 30.6777C114.448 30.4752 114.125 30.374 113.693 30.374H112.361V32.6802Z" fill="white"/>
<path d="M121.291 29.069C122.125 29.069 122.857 29.2303 123.487 29.5528C124.124 29.8753 124.614 30.3365 124.955 30.9365C125.304 31.529 125.479 32.2189 125.479 33.0064C125.479 33.7939 125.304 34.4839 124.955 35.0763C124.614 35.6613 124.124 36.1151 123.487 36.4375C122.857 36.76 122.125 36.9213 121.291 36.9213H118.514V29.069H121.291ZM121.234 35.5826C122.068 35.5826 122.713 35.3576 123.168 34.9076C123.624 34.4576 123.851 33.8239 123.851 33.0064C123.851 32.1889 123.624 31.5515 123.168 31.094C122.713 30.629 122.068 30.3965 121.234 30.3965H120.107V35.5826H121.234Z" fill="white"/>
</svg>
