<svg width="28" height="28" viewBox="0 0 28 28" fill="none" xmlns="http://www.w3.org/2000/svg">
<path d="M4.6795 13.402C4.67965 11.5097 4.69628 9.61722 4.67022 7.72529C4.66166 7.10229 4.90225 6.66558 5.39013 6.30304C7.31951 4.86932 9.24077 3.42503 11.1649 1.98445C11.2195 1.94359 11.2715 1.89931 11.3262 1.85859C11.514 1.71878 11.7135 1.62519 11.94 1.76784C12.1592 1.90586 12.1889 2.11171 12.1371 2.34704C12.0174 2.8913 11.9061 3.43734 11.7874 3.98179C11.1324 6.98497 10.4718 9.98691 9.82824 12.9924C9.77008 13.2641 9.76822 13.5688 9.82663 13.8401C10.5409 17.1586 11.2716 20.4737 11.9969 23.7899C12.051 24.0372 12.0965 24.2864 12.1458 24.5348C12.1889 24.7516 12.145 24.94 11.9497 25.0696C11.7481 25.2034 11.5545 25.1487 11.3772 25.0207C10.9763 24.7313 10.5771 24.4395 10.182 24.1424C8.61525 22.9642 7.05886 21.7724 5.48019 20.61C4.92664 20.2024 4.65359 19.732 4.66715 19.0279C4.70313 17.1532 4.67934 15.2774 4.6795 13.402ZM12.7196 13.7354C13.2388 14.0316 13.759 14.3261 14.2795 14.62C16.5546 15.9047 18.8338 17.1826 21.1028 18.4779C21.7134 18.8265 22.1774 18.8186 22.1665 17.8618C22.1328 14.9057 22.1543 11.9489 22.1539 8.99244C22.1539 8.85734 22.1613 8.72086 22.1452 8.5874C22.1029 8.23683 21.8745 8.07279 21.5359 8.17397C21.3419 8.23196 21.1599 8.33727 20.9819 8.43751C18.5414 9.8116 16.1022 11.1882 13.6634 12.5651C13.2052 12.8238 12.7497 13.0869 12.1835 13.4104C12.4352 13.5634 12.5752 13.653 12.7196 13.7354ZM11.8297 15.5485C12.3386 17.9054 12.8486 20.2622 13.3617 22.6183C13.5481 23.4744 13.7358 24.3304 13.9373 25.1831C14.056 25.6857 14.3685 25.7974 14.8028 25.5147C14.8741 25.4683 14.9426 25.4173 15.0106 25.3662C15.6908 24.855 16.3704 24.343 17.0507 23.8318C18.2482 22.932 19.4493 22.0368 20.6422 21.1312C21.2267 20.6875 21.1925 20.3555 20.5471 19.9877C20.1027 19.7344 19.66 19.4784 19.2148 19.2268C17.4782 18.245 15.7413 17.2636 14.0034 16.284C13.2933 15.8836 12.5804 15.4879 11.7628 15.0308C11.7954 15.2892 11.8022 15.421 11.8297 15.5485ZM11.8617 11.7375C12.0128 11.663 12.168 11.5957 12.3143 11.5129C14.4098 10.3268 16.5037 9.13801 18.5988 7.9512C19.2674 7.57242 19.9423 7.20437 20.6069 6.8188C21.1671 6.49374 21.1945 6.1596 20.7006 5.76072C20.4357 5.54683 20.1541 5.35315 19.8818 5.14805C18.2207 3.89694 16.5632 2.64121 14.8978 1.39586C14.3695 1.00081 14.0692 1.11629 13.9187 1.74688C13.7894 2.28851 13.6602 2.83028 13.5419 3.37428C13.0684 5.55234 12.5987 7.7312 12.1284 9.90996C12.0013 10.4988 11.8772 11.0883 11.7517 11.6775C11.7884 11.6975 11.825 11.7175 11.8617 11.7375Z" fill="#31CB9D"/>
</svg>
