<svg width="28" height="28" viewBox="0 0 28 28" fill="none" xmlns="http://www.w3.org/2000/svg">
<path fill-rule="evenodd" clip-rule="evenodd" d="M20.4299 8.91401C20.8072 9.30852 21.4419 9.32567 21.8364 8.94832C22.2309 8.57096 22.248 7.95348 21.8535 7.55898L20.8244 6.49553C18.5603 4.14565 14.8039 4.04274 12.4197 6.2897L5.54163 12.7905L5.696 6.324C5.71315 5.77513 5.28434 5.32917 4.73547 5.31201C4.18659 5.29486 3.74063 5.72367 3.72348 6.27255L3.5005 15.106C3.48334 15.6549 3.91215 16.1009 4.46103 16.118L13.3803 16.341C13.9291 16.3581 14.3751 15.9293 14.3923 15.3805C14.4094 14.8316 13.9806 14.3856 13.4317 14.3685L6.91382 14.2141L13.7919 7.71335C15.3871 6.22109 17.8913 6.27255 19.4007 7.85056L20.4299 8.91401ZM8.01155 18.1077C7.63419 17.7132 6.99956 17.696 6.60505 18.0734C6.21055 18.4507 6.19339 19.0682 6.5879 19.4627L7.61704 20.5262C9.88115 22.876 13.6375 22.979 16.0217 20.732L22.8998 14.2312L22.7454 20.6977C22.7283 21.2466 23.1571 21.6925 23.706 21.7097C24.2548 21.7268 24.7008 21.298 24.718 20.7491L24.9409 11.9157C24.9581 11.3668 24.5293 10.9208 23.9804 10.9037L15.0612 10.6807C14.5123 10.6635 14.0663 11.0924 14.0492 11.6412C14.032 12.1901 14.4608 12.6361 15.0097 12.6532L21.5276 12.8076L14.6495 19.3083C13.0543 20.8006 10.5501 20.7491 9.04069 19.1711L8.01155 18.1077Z" fill="#DC6BE5"/>
</svg>
