<svg width="90" height="90" viewBox="0 0 90 90" fill="none" xmlns="http://www.w3.org/2000/svg">
<g style="mix-blend-mode:lighten" opacity="0.9">
<circle cx="45" cy="45" r="45" fill="white"/>
<g clip-path="url(#clip0)">
<path fill-rule="evenodd" clip-rule="evenodd" d="M43.331 12.0171C37.8226 12.1427 32.2311 13.7203 27.4399 16.5008C20.555 20.4963 15.3322 26.8388 12.7718 34.3136C11.7833 37.1994 11.2151 40.1028 11.0342 43.1917C10.9883 43.9764 10.9887 45.9615 11.035 46.7591C11.4446 53.8171 14.0424 60.4611 18.5081 65.8719C19.8269 67.4698 21.506 69.1378 23.1253 70.4589C29.7503 75.8629 38.422 78.5505 46.9028 77.8281C53.3948 77.275 59.4496 74.9232 64.5929 70.9565C66.536 69.4579 68.5427 67.4862 70.1057 65.5399C72.625 62.4027 74.5976 58.7325 75.8134 54.9198C77.7333 48.8988 77.8706 42.469 76.2099 36.3664C74.8447 31.3503 72.2716 26.6798 68.7462 22.8192C68.1433 22.1589 66.7128 20.7507 66.129 20.2427C64.8502 19.13 63.8433 18.3709 62.3736 17.4115C57.7653 14.4034 52.4268 12.5767 46.9019 12.1174C46.2005 12.0591 44.4734 11.9898 44.0057 12.0012C43.8494 12.0051 43.5458 12.0122 43.331 12.0171ZM46.6335 13.4557C49.429 13.6913 51.7756 14.1656 54.3038 15.0061C57.8665 16.1905 61.0815 17.9345 64.0516 20.2939C67.6734 23.171 70.566 26.7224 72.6295 30.8254C76.6417 38.8028 77.0886 47.9986 73.8692 56.3306C72.8279 59.0255 71.3673 61.646 69.625 63.9457C64.4518 70.7736 56.8244 75.1968 48.3026 76.311C46.711 76.5191 45.3607 76.594 43.7038 76.566C40.2643 76.508 37.2693 76.0023 34.0627 74.9384C29.3473 73.3738 25.2008 70.8223 21.6504 67.3006C17.155 62.8415 14.0802 57.0634 12.9021 50.8612C12.1244 46.7669 12.1739 42.4308 13.0444 38.377C15.0833 28.8827 21.407 20.842 30.1908 16.5751C33.8905 14.7779 37.9815 13.6889 41.9639 13.4411C42.3056 13.4199 42.6652 13.3967 42.7628 13.3897C43.2377 13.3556 46.0053 13.4027 46.6335 13.4557ZM25.9239 25.1234C25.836 25.2193 25.3829 25.9538 25.2 26.2961C24.8949 26.8676 24.6708 27.6295 24.475 28.7615C24.2 30.3506 24.2138 31.3059 24.5446 33.5799C24.8152 35.44 25.0247 36.319 25.4352 37.3188C25.5189 37.5226 25.6755 37.9432 25.7832 38.2535C25.9715 38.7954 26.1143 39.153 26.1428 39.153C26.1502 39.153 26.2805 39.0062 26.4324 38.8267C26.749 38.4524 26.7909 38.4149 26.8929 38.4133C27.1068 38.4101 27.1521 38.7317 26.9727 38.9801C26.6125 39.4784 25.9197 40.15 25.5388 40.3699C25.4715 40.4086 25.4163 40.4546 25.4161 40.4721C25.416 40.4895 25.4686 40.5688 25.5331 40.6484C25.5976 40.7281 25.7526 40.9361 25.8774 41.1106C26.0022 41.2851 26.1712 41.4975 26.2529 41.5824C26.4888 41.8275 26.476 41.9143 26.0916 42.6734C25.7844 43.2803 25.5292 43.6695 25.0324 44.2886C24.9095 44.4419 24.7564 44.6337 24.6923 44.7147C24.5099 44.9452 23.6669 45.729 23.3637 45.9501C23.2131 46.0599 23.0099 46.2152 22.9123 46.2952C22.8146 46.3752 22.6278 46.5085 22.497 46.5915C22.1428 46.8161 22.1412 46.8247 22.4417 46.8763C22.5834 46.9005 22.8474 46.9401 23.0286 46.9642C23.2859 46.9985 23.3772 47.026 23.4459 47.09C23.6123 47.2454 23.5367 47.3929 23.1609 47.6455C23.0241 47.7375 22.6426 48.0163 21.9914 48.5002C21.8216 48.6263 21.5335 48.8337 21.3511 48.9611C21.1687 49.0885 20.9359 49.2675 20.8338 49.3586C20.7316 49.4498 20.4987 49.6313 20.3161 49.7619C20.1335 49.8924 19.9838 50.0083 19.9834 50.0193C19.983 50.0304 20.0985 50.0999 20.2401 50.1739C20.3817 50.2478 20.6126 50.3788 20.7532 50.465C20.8938 50.5511 21.3172 50.764 21.6941 50.938C22.5588 51.3375 22.7537 51.4442 23.6048 51.9852C24.4019 52.4919 24.7643 52.7526 25.4978 53.3472C25.787 53.5816 26.0362 53.7779 26.0515 53.7833C26.0668 53.7888 26.1082 53.6856 26.1433 53.554C26.1784 53.4225 26.2454 53.2117 26.2922 53.0856C26.4052 52.781 27.0882 51.5054 27.2931 51.2162C27.6131 50.7645 28.3388 50.0856 29.1535 49.4759C29.5002 49.2165 29.9723 48.9687 30.3785 48.8332L30.6715 48.7354V47.0511C30.6715 46.1246 30.6632 45.3455 30.6533 45.3198C30.6386 45.2816 30.427 45.2752 29.5336 45.2853C28.9279 45.2922 28.3759 45.2873 28.307 45.2745C28.2381 45.2617 28.1506 45.2203 28.1126 45.1826C28.0459 45.1164 28.0436 45.0483 28.0436 43.1643C28.0436 41.3907 28.049 41.2066 28.1037 41.1273C28.1368 41.0793 28.1776 41.0306 28.1946 41.0191C28.2115 41.0075 28.7757 41.0057 29.4484 41.0152L30.6715 41.0323V40.9544C30.6715 40.9117 30.6879 40.846 30.7082 40.8084C30.7444 40.7412 30.9446 40.7402 45.1877 40.7408C53.1313 40.741 59.648 40.753 59.6696 40.7673C59.7967 40.8515 59.7974 40.8743 59.7848 44.6631L59.7726 48.3662L60.2065 48.553C61.4422 49.0844 62.7888 49.9873 63.6162 50.8393C63.7967 51.0251 64.0046 51.2709 64.0779 51.3854L64.2114 51.5938L65.1902 50.8142C65.7286 50.3853 66.3199 49.9086 66.5041 49.7546C66.8851 49.4363 67.638 48.8747 68.0199 48.6237C68.1615 48.5307 68.2774 48.4438 68.2774 48.4307C68.2774 48.3639 66.8024 46.8253 66.1712 46.2338L65.7161 45.8073L65.6282 45.9016C65.4855 46.0544 65.259 46.0154 65.259 45.838C65.259 45.7977 65.3803 45.5589 65.5286 45.3071C65.6769 45.0554 65.8372 44.7781 65.8848 44.6907C65.9324 44.6034 66.0898 44.3495 66.2345 44.1264L66.4976 43.7207L65.8694 43.6793C65.0844 43.6275 64.9621 43.6093 64.8627 43.5294C64.7293 43.422 64.7626 43.263 65.0215 42.7744L65.2528 42.3379L64.808 42.3171C64.1433 42.2858 64.0793 42.1865 64.4454 41.754C64.7883 41.3491 64.8093 41.3806 64.1948 41.3772C63.6284 41.3741 63.5112 41.3516 63.4476 41.2334C63.4158 41.1745 63.4193 41.1406 63.4639 41.073C63.5197 40.9884 63.5185 40.9864 63.3688 40.9274C63.1516 40.8419 62.816 40.662 62.4057 40.4113C62.1293 40.2425 61.9266 40.0746 61.5034 39.6645L60.9574 39.1353L61.0597 38.9508L61.1619 38.7662L61.6213 39.2367C61.874 39.4954 62.1845 39.7824 62.3114 39.8745L62.5421 40.0418L62.717 39.8531C63.164 39.3707 63.7827 38.4929 64.0183 38.0066C64.62 36.7648 65.0307 34.85 65.1531 32.7157C65.1966 31.9583 65.1773 30.1966 65.1193 29.6118C64.9897 28.3046 64.8036 27.4545 64.5202 26.8727C64.4224 26.672 64.2943 26.4423 64.2354 26.3622C64.1114 26.1934 63.7328 25.9482 63.3021 25.7578C63.0111 25.6291 62.9943 25.6261 62.5957 25.63C62.2379 25.6335 62.1182 25.6521 61.6302 25.7799C61.3238 25.8601 61.0327 25.9258 60.9834 25.9258C60.776 25.9258 59.2654 26.4802 59.1184 26.6103C59.0648 26.6577 58.8167 26.7643 57.7129 27.2141C57.4395 27.3256 57.0136 27.5163 56.7667 27.638C55.7768 28.1255 53.1215 29.6559 52.6653 30.0018C52.5772 30.0686 52.4806 30.1232 52.4506 30.1232C52.4206 30.1232 52.0742 29.9582 51.6809 29.7564C50.8727 29.3418 50.4787 29.1861 49.8441 29.0309C49.3592 28.9123 49.2426 28.8494 49.1938 28.6803C49.1641 28.5777 49.1913 28.5085 49.4824 27.9431C49.8626 27.2046 50.1809 26.5276 50.1583 26.5052C50.1341 26.4811 49.5529 26.728 48.7788 27.0911C47.9428 27.4832 47.4743 27.6756 46.9354 27.8478C46.0593 28.1279 45.6967 28.146 45.5907 27.915C45.5337 27.7906 45.5836 27.6952 45.9179 27.2902C46.4446 26.6519 46.841 26.0765 47.1458 25.5079C47.2206 25.3682 47.1278 25.4456 46.4694 26.0711C45.7758 26.73 45.6257 26.8621 45.2371 27.155C44.7857 27.4954 43.3672 28.4219 43.0685 28.5715C42.3881 28.9122 41.2028 29.2841 40.4711 29.3862C39.9597 29.4577 38.733 29.4494 38.2529 29.3713C38.0382 29.3365 37.8344 29.2998 37.8002 29.2899C37.7661 29.28 37.738 29.2871 37.738 29.3056C37.738 29.3643 38.5314 29.8057 38.637 29.8057C38.7215 29.8057 38.8095 29.9344 38.7972 30.0405C38.7893 30.1089 38.7542 30.1552 38.6858 30.1876C38.5946 30.2309 38.5642 30.2245 38.3253 30.1118C37.9929 29.955 37.3459 29.5773 36.6091 29.11C35.9607 28.6987 35.7255 28.5815 34.8085 28.2136C34.4569 28.0726 33.9775 27.8569 33.743 27.7343C32.9893 27.3399 32.6627 27.1975 31.9888 26.9691C31.6255 26.8461 31.0806 26.6502 30.7779 26.534C30.1922 26.3091 29.9616 26.2353 28.993 25.9624C28.6564 25.8676 28.1882 25.7188 27.9527 25.6318C27.4399 25.4423 26.1605 25.044 26.0646 25.044C26.0271 25.044 25.9637 25.0797 25.9239 25.1234ZM53.4317 34.5166C53.6747 34.5714 54.173 34.8266 54.4281 35.0268C54.4965 35.0803 54.6267 35.2489 54.7175 35.4014C54.9973 35.8711 55.1285 36.4338 55.089 36.9932C55.0043 38.1898 54.6715 38.6449 53.703 38.8884C53.5256 38.9331 52.9092 39.0386 52.333 39.123C51.3094 39.2729 51.2652 39.2764 50.3977 39.2749C49.7423 39.2738 49.3983 39.2571 49.0838 39.2113C48.0492 39.0606 47.5285 38.8474 47.3473 38.5005C47.0999 38.0265 47.3891 36.9726 47.8999 36.4873C48.1773 36.2235 48.3732 36.1092 49.2081 35.7238C50.1641 35.2826 50.6606 35.0825 51.1611 34.9371C51.4053 34.8661 51.7888 34.7515 52.0134 34.6824C52.7949 34.4418 52.9963 34.4183 53.4317 34.5166ZM37.738 35.1017C37.8846 35.1414 38.038 35.1868 38.0793 35.2028C38.1537 35.2315 38.6122 35.5689 39.4958 36.2453C39.7498 36.4397 40.1613 36.7465 40.4104 36.9273C41.0451 37.3878 41.2286 37.6039 41.4486 38.1501C41.5717 38.4559 41.5797 38.7975 41.4692 39.0244C41.2038 39.569 40.445 39.8231 39.0847 39.8231C38.4412 39.8231 37.9018 39.7816 36.7616 39.6443C35.7213 39.519 35.3651 39.462 35.0094 39.3639C33.9989 39.0853 33.7333 38.4646 34.1183 37.2813C34.4074 36.3926 34.8609 35.9212 35.9625 35.3646C36.7138 34.985 37.0971 34.9282 37.738 35.1017ZM28.8397 41.3449C28.6655 41.429 28.5865 41.767 28.7027 41.9318C28.769 42.0259 28.9338 42.1159 29.0397 42.1159C29.1803 42.1159 29.3503 42.0083 29.4113 41.8804C29.4889 41.7179 29.455 41.5371 29.3221 41.4051C29.2409 41.3243 29.1906 41.305 29.0673 41.307C28.9828 41.3083 28.8804 41.3254 28.8397 41.3449ZM39.123 42.206C37.9219 42.2301 35.9707 42.2513 34.7871 42.2533C33.6036 42.2554 32.5134 42.2672 32.3643 42.2797L32.0934 42.3025L32.1148 43.9816C32.1342 45.5078 32.1416 45.6655 32.1971 45.7137C32.2306 45.7428 32.4874 46.1158 32.7679 46.5426C35.2073 50.2548 35.3287 50.4323 35.4432 50.4551C35.618 50.4898 36.9051 50.4774 37.3591 50.4366C37.666 50.4089 37.8503 50.3731 37.9945 50.3131C38.1062 50.2665 38.2161 50.2285 38.2388 50.2285C38.3442 50.2285 38.9639 49.8294 39.334 49.5232C39.7383 49.1887 40.0535 48.8441 41.0436 47.6537C41.583 47.0052 42.0812 46.4614 42.3271 46.2527C42.4721 46.1298 42.6655 46.0159 42.9098 45.9096C43.3595 45.7139 43.4825 45.6832 43.9446 45.6509L44.3096 45.6255L43.7723 44.7966C43.4768 44.3407 42.9777 43.5709 42.6631 43.0859C42.3485 42.6009 42.0745 42.1924 42.0541 42.1781C42.0115 42.1482 42.0152 42.1482 39.123 42.206ZM44.4823 42.2165C44.5494 42.3409 46.5855 45.6926 46.6198 45.735C46.6372 45.7564 46.7692 45.7837 46.9132 45.7958C47.2441 45.8236 47.6883 45.9618 47.905 46.1044C48.1524 46.2672 48.939 47.0897 49.3323 47.597C49.796 48.1949 50.2851 48.7876 50.5305 49.0491C50.864 49.4044 51.5234 49.9645 51.7347 50.0718C52.3413 50.3798 52.9134 50.4757 54.139 50.475C55.9398 50.4741 57.4937 50.1256 58.097 49.5875L58.268 49.4349L58.2861 48.024L58.3042 46.6131L56.7811 44.4438L55.2582 42.2746L54.9053 42.2524C54.7113 42.2401 53.0583 42.2203 51.2321 42.2082C49.4061 42.1961 47.1311 42.1759 46.1766 42.1634L44.4414 42.1405L44.4823 42.2165ZM28.8875 42.559C28.7592 42.6281 28.6827 42.7824 28.6836 42.9694C28.6845 43.1442 28.7522 43.2448 28.928 43.3326C29.2603 43.4988 29.6452 43.1576 29.5272 42.8016C29.4432 42.5488 29.1282 42.4293 28.8875 42.559ZM36.2311 43.8002C36.3815 44.0475 36.5922 44.4085 36.6995 44.6026C36.8068 44.7966 36.9644 45.0606 37.0499 45.1893C37.2149 45.4377 37.2388 45.5364 37.1514 45.6085C37.0973 45.6531 36.129 45.6418 35.0778 45.5845C34.7392 45.5659 34.6757 45.5704 34.6917 45.6115C34.7022 45.6386 35.2802 46.4576 35.9759 47.4316C36.6717 48.4056 37.2409 49.2111 37.2409 49.2217C37.2409 49.2323 37.1382 49.2409 37.0127 49.2409H36.7845L35.5402 47.4982C34.8558 46.5398 34.2554 45.6963 34.206 45.6239C34.0878 45.451 34.0881 45.3101 34.207 45.2327C34.2908 45.1783 34.391 45.1766 35.4408 45.2116C36.0694 45.2324 36.5887 45.2446 36.5949 45.2384C36.601 45.2323 36.3731 44.8295 36.0885 44.3433C35.8038 43.8571 35.5614 43.4349 35.5499 43.4048C35.5324 43.3594 35.5646 43.3503 35.7433 43.3503H35.9579L36.2311 43.8002ZM28.7818 44.2587C28.7739 44.4479 28.7792 44.6164 28.7935 44.6334C28.8081 44.6507 29.1092 44.6529 29.4791 44.6384L30.1387 44.6125V44.2636V43.9148H29.4675H28.7962L28.7818 44.2587ZM43.1308 47.5566C43.101 47.5809 43.0093 47.7198 42.927 47.8652C42.6033 48.4374 41.9754 49.191 41.1874 49.9532C40.3191 50.793 39.4546 51.4407 38.7501 51.7791C38.1307 52.0767 38.2032 52.0695 35.9803 52.0546C34.1263 52.0423 34.0137 52.0378 33.7602 51.9675C32.4278 51.5976 30.8478 50.3434 30.7251 49.5584C30.6913 49.341 30.6742 49.334 30.4099 49.4294C30.2791 49.4765 30.1067 49.5606 30.0267 49.6161C29.9466 49.6716 29.7561 49.7964 29.6033 49.8934C29.4506 49.9905 29.077 50.2921 28.7731 50.5637C28.2795 51.005 28.1739 51.1209 27.78 51.6538C27.3033 52.299 26.9113 53.0003 26.6838 53.6147C26.4687 54.1957 26.4168 54.0689 27.1838 54.8338C27.5942 55.2431 28.0495 55.744 28.3598 56.1274C28.6383 56.4715 29.0845 56.9959 29.3514 57.2928C30.1726 58.2057 30.3728 58.4555 30.912 59.2406C31.198 59.6571 31.4098 59.9177 31.9812 60.5561C32.4963 61.1317 32.6932 61.3835 33.1308 62.0272C33.4668 62.5212 33.7162 62.8539 34.188 63.438C35.1858 64.6732 35.6752 65.4096 36.4502 66.8412C36.6551 67.2198 36.9869 67.7994 37.1873 68.1293C37.6618 68.9098 38.4866 70.566 38.8425 71.4528C38.9869 71.813 39.4424 73.0886 39.4433 73.1362C39.4438 73.1566 39.4725 73.2098 39.5071 73.2544C39.5609 73.324 39.6358 73.3452 40.0301 73.4023C41.5094 73.6166 42.6157 73.6933 44.2543 73.6952C45.5652 73.6967 46.1883 73.6684 47.255 73.5595C47.7631 73.5076 48.8623 73.3669 48.8796 73.3516C48.8846 73.3471 48.9432 73.1466 49.0099 72.9057C49.2178 72.155 49.4085 71.6886 50.0632 70.3281C50.2997 69.8366 50.6614 69.0693 50.8668 68.6231C51.3708 67.5286 51.8129 66.6635 52.1564 66.0995C52.5532 65.4482 52.8402 64.9457 53.203 64.2669C53.8125 63.1268 54.2157 62.4776 55.0615 61.2742C55.3703 60.8347 55.7494 60.2927 55.9039 60.0695C56.2715 59.5383 56.6184 59.1151 57.2339 58.447C57.7233 57.9155 58.0156 57.5771 58.7416 56.701C58.9344 56.4682 59.3648 56.0159 59.6978 55.6958C60.0309 55.3757 60.6634 54.7633 61.1033 54.3351C61.5432 53.9068 62.103 53.3915 62.3471 53.1901C63.0411 52.6176 63.7675 51.9878 63.7675 51.9586C63.7675 51.9245 63.5832 51.6692 63.4008 51.4507C63.1626 51.1657 62.275 50.3631 61.9957 50.1804C61.8515 50.086 61.6609 49.9539 61.5723 49.8868C61.4837 49.8195 61.2982 49.7082 61.16 49.6392C61.0219 49.5702 60.8392 49.4663 60.754 49.4082C60.5664 49.2803 60.0698 49.0618 59.892 49.0289L59.7629 49.005L59.7481 49.308C59.7261 49.7565 59.5798 50.0178 59.0641 50.5302C58.2996 51.2899 57.167 51.9093 56.328 52.0266C56.1913 52.0457 55.2544 52.0615 54.2463 52.062L52.413 52.0627L52.1421 51.9748C51.6083 51.8017 51.043 51.4698 50.2734 50.8779C49.7656 50.4872 48.5341 49.2775 48.1404 48.7823C47.819 48.3782 47.3615 47.7015 47.3615 47.6303C47.3615 47.6057 47.3306 47.5692 47.2928 47.549C47.1855 47.492 43.2011 47.4993 43.1308 47.5566ZM73.32 48.4414C73.2125 48.5255 72.5903 49.1405 71.9373 49.8082C71.2843 50.4759 70.5652 51.2061 70.3393 51.4309C70.1134 51.6556 69.649 52.1388 69.3072 52.5046C68.9654 52.8703 68.4941 53.3692 68.2596 53.6133C67.7455 54.1488 67.2344 54.718 66.8037 55.2348C66.6279 55.4458 66.3529 55.7668 66.1926 55.9482C66.0322 56.1294 65.8005 56.4145 65.6777 56.5818C65.5548 56.749 65.1491 57.2892 64.7761 57.7821C63.9646 58.8546 63.7372 59.1808 63.3206 59.8701C63.1465 60.1581 62.8937 60.5391 62.7589 60.7166C62.1465 61.5229 60.483 64.3141 59.2554 66.5949C58.7031 67.6211 57.8413 69.335 57.5172 70.0516C57.4339 70.2359 57.3282 70.47 57.2823 70.572L57.1989 70.7572L57.6293 70.5428C60.3915 69.1675 63.2037 67.1193 65.3893 64.8912C69.2511 60.9542 71.8941 56.1139 73.1035 50.7641C73.3119 49.8419 73.5594 48.4202 73.5278 48.3262C73.521 48.3055 73.4274 48.3574 73.32 48.4414ZM47.3437 51.5157C47.9387 51.6692 48.2207 51.8776 48.3681 52.2729C48.5021 52.6317 48.5237 52.9721 48.4336 53.2985C48.323 53.6988 48.1043 54.1377 47.7794 54.611C47.4117 55.1471 47.1906 55.3859 46.7745 55.6965C46.3389 56.0217 45.9766 56.2256 45.7129 56.2938C45.5118 56.3459 45.4964 56.3571 45.4864 56.4593C45.4795 56.53 45.5269 56.682 45.6195 56.8866C45.7984 57.2811 45.8056 57.4403 45.6597 57.7709C45.4752 58.1892 45.4672 58.1621 45.8242 58.3235C46.0608 58.4304 46.1903 58.5173 46.3586 58.6823C46.5346 58.8546 46.627 58.9152 46.8025 58.9731C47.1183 59.0775 47.8127 59.2156 48.2526 59.2615C48.5902 59.2968 48.6688 59.2933 49.0162 59.227C49.5016 59.1343 49.7876 59.0529 50.1491 58.9043C50.6644 58.6925 50.741 58.6243 51.2167 57.9531C51.3888 57.7106 51.6435 57.3615 51.783 57.1772C51.9224 56.9929 52.1378 56.6913 52.2616 56.507C52.3854 56.3227 52.5768 56.0529 52.6869 55.9074C52.9451 55.5663 53.4079 54.9441 53.609 54.6677C53.8932 54.277 54.4307 54.023 55.0624 53.9808C55.5987 53.9451 56.0541 54.0904 56.7916 54.5329C57.23 54.7961 57.3639 54.8476 57.6108 54.8485C57.8565 54.8493 58.0787 54.7829 58.2255 54.6647C58.6003 54.3629 59.3426 53.6942 59.701 53.3353C59.9532 53.0829 60.1546 52.9092 60.1953 52.9092C60.2822 52.9092 60.3939 53.0077 60.3939 53.0841C60.3939 53.1848 58.9216 54.6077 58.4129 54.9988C58.2097 55.1549 57.9261 55.2431 57.6241 55.244C57.2983 55.2449 57.1164 55.1808 56.6191 54.8892C55.8159 54.4182 55.4708 54.3127 54.9658 54.3836C54.6226 54.4318 54.3292 54.5384 54.1371 54.6846C54.0536 54.7482 53.8513 54.997 53.6677 55.2623C53.4903 55.5187 53.1603 55.979 52.9347 56.2853C52.7089 56.5915 52.4544 56.9453 52.369 57.0713C52.2838 57.1975 52.1248 57.4142 52.016 57.5529C51.9072 57.6917 51.6625 58.019 51.4724 58.2803C51.2822 58.5416 51.063 58.8125 50.9852 58.8823C50.7139 59.1258 50.0528 59.4034 49.3679 59.5616C48.6727 59.7221 48.0566 59.6919 47.0478 59.4478C46.5357 59.324 46.408 59.2612 46.1098 58.9869C45.7899 58.6929 45.6161 58.6229 45.2055 58.6231C44.8025 58.6235 44.6106 58.7041 44.2872 59.0092C44.0646 59.2193 43.9975 59.2607 43.7528 59.339C43.1364 59.5362 42.4299 59.6576 41.8929 59.6587C41.3878 59.6597 40.8272 59.5409 40.2238 59.305C39.5517 59.0421 39.4165 58.9327 38.9464 58.2706C38.8017 58.067 38.5694 57.7574 38.4302 57.5828C38.2909 57.4082 38.0974 57.146 38.0001 56.9999C37.9027 56.8539 37.752 56.6408 37.6651 56.5265C37.3297 56.0848 37.034 55.6808 36.7466 55.2719C36.4122 54.7957 36.1565 54.5708 35.8457 54.479C35.576 54.3995 35.0194 54.3715 34.7877 54.4259C34.5683 54.4774 34.1279 54.6884 33.6961 54.949C33.5336 55.0472 33.3186 55.1545 33.2185 55.1875C32.8522 55.3083 32.3354 55.2343 32.0335 55.0175C31.6454 54.7388 30.0322 53.1892 30.0322 53.095C30.0322 53.0151 30.1372 52.9092 30.2165 52.9092C30.3333 52.9092 30.4613 53.0152 31.1153 53.6529C32.2444 54.7537 32.3781 54.8485 32.802 54.8485C33.0574 54.8485 33.2145 54.7894 33.6271 54.5379C33.9452 54.3441 34.3386 54.1489 34.5728 54.0688C35.1305 53.8781 35.9668 53.9934 36.4691 54.3301C36.7209 54.4989 36.9687 54.8176 38.2175 56.5783C38.6228 57.1499 38.9936 57.6654 39.4561 58.3C39.5859 58.4784 39.7268 58.6258 39.8289 58.6905C40.1839 58.9153 41.0705 59.1975 41.6653 59.2751C41.9957 59.3181 42.9285 59.1782 43.5481 58.9925C43.7985 58.9175 43.8592 58.8825 44.0098 58.726C44.2214 58.5063 44.3575 58.4182 44.6804 58.2916C44.9956 58.1681 45.0627 58.1046 45.1608 57.836C45.2046 57.7161 45.2622 57.5868 45.2888 57.5485C45.3646 57.44 45.3476 57.3375 45.2056 57.044C45.0997 56.8251 45.0736 56.7299 45.0724 56.5599C45.071 56.3397 45.048 56.2971 44.929 56.2954C44.6622 56.2913 43.5596 55.6193 43.1553 55.2145C42.7989 54.8576 42.248 53.8861 42.0677 53.2963C42.0053 53.0926 41.9939 52.9811 42.0049 52.6867C42.0253 52.1385 42.1664 51.8955 42.5884 51.682C42.7231 51.6138 43.1795 51.4842 43.3843 51.4559C43.4331 51.4493 44.288 51.4455 45.2842 51.4476C46.912 51.4512 47.1203 51.458 47.3437 51.5157ZM16.254 53.619C16.254 53.6724 16.6845 54.8284 16.9064 55.3707C17.2577 56.2293 17.4432 56.6366 17.8738 57.4947C19.7702 61.2739 22.4684 64.5896 25.842 67.2863C27.5767 68.6728 29.6325 69.9471 31.675 70.9014C32.3798 71.2309 33.1959 71.5768 33.2175 71.5555C33.2256 71.5474 33.1195 71.3208 32.9817 71.0519C32.844 70.7831 32.5011 70.0948 32.2199 69.5226C31.6254 68.3126 31.3911 67.9 30.7364 66.9123C30.473 66.5147 30.0921 65.9115 29.8902 65.572C29.293 64.568 28.5717 63.5117 27.6022 62.2212C27.3471 61.8816 27.0405 61.4624 26.9207 61.2896C26.7867 61.0959 26.3707 60.6288 25.8374 60.0732C24.3264 58.4983 23.9937 58.181 23.3739 57.7237C23.0615 57.4932 22.606 57.1514 22.3619 56.9643C21.7921 56.5275 21.5007 56.3359 20.8882 55.9958C20.6147 55.8439 20.0967 55.5459 19.7371 55.3335C19.3774 55.1211 18.898 54.864 18.6718 54.7622C18.4455 54.6605 17.809 54.3556 17.2572 54.0845C16.7054 53.8136 16.254 53.604 16.254 53.619Z" fill="black"/>
</g>
</g>
<defs>
<clipPath id="clip0">
<rect width="68" height="66" fill="white" transform="translate(11 12)"/>
</clipPath>
</defs>
</svg>
