<svg width="206" height="38" viewBox="0 0 206 38" fill="none" xmlns="http://www.w3.org/2000/svg">
<path d="M205.696 9.27562L196.138 18.9169L205.696 28.5582V37.9667H201.345L189.282 25.7988L182.427 18.9501L189.282 12.035L191.985 9.30881H182.427V18.9501V38H172.935V9.27562V0H182.427H205.696V9.27562ZM131.901 0V9.50831H169.078V0H131.901ZM131.901 23.7375H169.078V14.2624H131.901V23.7375ZM131.901 38H169.078V28.4917H131.901V38ZM36.2877 0V38H47.1967V0H36.2877ZM118.717 0V14.2624H100.327V0H90.9665V14.2624V23.7043V37.9667H100.327V23.7043H118.717V37.9667H128.078V23.7043V14.2624V0H118.717ZM87.1431 0V9.54157V22.574V24.0367H59.9851V37.9667H51.0532V24.07V15.7585V9.54157V0H61.9623H77.7828H87.1431ZM77.7828 9.54157H59.9851L66.1479 15.7585H77.7828V9.54157ZM32.4643 0H0V9.50831L19.4128 28.4917H0V38H32.4643V28.4917L13.0517 9.50831H32.4643V0Z" fill="#F4B533"/>
</svg>
